<svg id="Camada_1" data-name="Camada 1" xmlns="http://www.w3.org/2000/svg" viewBox="0 0 595.28 170"><path d="M405.55,124.07A27.27,27.27,0,0,1,392,120.91a22.37,22.37,0,0,1-8.75-8.64,25.1,25.1,0,0,1-3.1-12.58,22.59,22.59,0,0,1,3.49-12.3,26.3,26.3,0,0,1,9.25-8.87,25.33,25.33,0,0,1,12.86-3.32q9.08,0,15.07,5.32t8.2,14.63l-37.9,13.3-2.44-6.1,30.92-11.41-2.11,1.55a14.86,14.86,0,0,0-4.43-6.32A12,12,0,0,0,405,83.51,13.92,13.92,0,0,0,392.37,91a16.86,16.86,0,0,0-1.89,8.15,17.51,17.51,0,0,0,1.94,8.31,14.23,14.23,0,0,0,5.43,5.71,15.43,15.43,0,0,0,7.93,2,15.74,15.74,0,0,0,5.81-1.11,26.08,26.08,0,0,0,5.38-2.88l4.65,7.64a31.34,31.34,0,0,1-7.7,3.77A26,26,0,0,1,405.55,124.07Z" style="fill:#aa1916"/><path d="M461,124.07a24.7,24.7,0,0,1-11.7-2.77,20.52,20.52,0,0,1-8.36-8.14A25.89,25.89,0,0,1,437.8,100,26,26,0,0,1,441,86.72a22.33,22.33,0,0,1,8.64-8.53,24.21,24.21,0,0,1,11.86-3,19.53,19.53,0,0,1,10.92,2.94,19.85,19.85,0,0,1,6.7,6.92l-.66,1.66,1-9.64H489V123H478.7V111l1.22,2.66a13.93,13.93,0,0,1-2.11,2.82,26.32,26.32,0,0,1-3.93,3.49,22,22,0,0,1-5.6,2.94A21.52,21.52,0,0,1,461,124.07Zm2.77-8.53a16.41,16.41,0,0,0,7-1.44,13.7,13.7,0,0,0,5.15-4.1,15.43,15.43,0,0,0,2.83-6.21v-9A14.16,14.16,0,0,0,475.6,89a15.43,15.43,0,0,0-5.32-3.88,16.32,16.32,0,0,0-6.76-1.39,14.88,14.88,0,0,0-13.14,7.54,16.26,16.26,0,0,0-2.05,8.31,15.86,15.86,0,0,0,2.11,8.09,15.54,15.54,0,0,0,5.65,5.76A14.65,14.65,0,0,0,463.74,115.54Z" style="fill:#aa1916"/><path d="M516.05,77.08l1,13.3-.44-1.88a20.29,20.29,0,0,1,5.1-7.1,24.73,24.73,0,0,1,7.09-4.54,19.66,19.66,0,0,1,6.43-1.66l-.44,10.42a15,15,0,0,0-9.26,1.94,17.78,17.78,0,0,0-6.2,6.2A15.84,15.84,0,0,0,517,102V123h-10.3V77.08Z" style="fill:#aa1916"/><path d="M551.51,130.61a6.18,6.18,0,0,0,3.66-.89,5.35,5.35,0,0,0,1.71-3.43,39.08,39.08,0,0,0,.5-7.2V104.46A19.37,19.37,0,0,1,558.66,97a15.36,15.36,0,0,1,3-4.83,19.17,19.17,0,0,1,3.05-2.65,29.6,29.6,0,0,1-3.1-2.78,14.09,14.09,0,0,1-3-4.76,20.2,20.2,0,0,1-1.22-7.54V59.79a38.82,38.82,0,0,0-.5-7.31,5,5,0,0,0-1.71-3.27,6.61,6.61,0,0,0-3.66-.83h-4.88v-9.2h7.1c1.7,0,3.41.06,5.15.17a11.06,11.06,0,0,1,4.65,1.27,8,8,0,0,1,3.33,3.88,19.74,19.74,0,0,1,1.27,8V70a32.6,32.6,0,0,0,.39,4.82,21.44,21.44,0,0,0,1.33,4.93,9.63,9.63,0,0,0,2.72,3.83A6.67,6.67,0,0,0,577,85.06v9.2a6.5,6.5,0,0,0-4.43,1.55,10.15,10.15,0,0,0-2.72,3.83,20.55,20.55,0,0,0-1.33,4.87,33.39,33.39,0,0,0-.39,4.93v17.07a20,20,0,0,1-1.22,7.93,7.77,7.77,0,0,1-3.26,3.82,11.15,11.15,0,0,1-4.66,1.27c-1.74.11-3.49.17-5.26.17h-7.1v-9.09Z" style="fill:#aa1916"/><path d="M309.88,75.26l.58.54a31.54,31.54,0,0,1,1.45-5,27.2,27.2,0,0,1,6.37-9.75,28.32,28.32,0,0,1,9.86-6.21,36.31,36.31,0,0,1,12.92-2.16,30.92,30.92,0,0,1,6.31.72,50.9,50.9,0,0,1,6.71,1.89,43.23,43.23,0,0,1,5.59,2.38l3.55-9.86a42.37,42.37,0,0,0-10.53-4.27A50.37,50.37,0,0,0,339.62,42a43.92,43.92,0,0,0-15.69,2.83,37.82,37.82,0,0,0-13.13,8.31,39.46,39.46,0,0,0-8.92,13.35c-.46,1.1-.86,2.24-1.22,3.41A27.21,27.21,0,0,1,309.88,75.26Z" style="fill:#aa1916"/><path d="M318,107.82a14.47,14.47,0,0,1,1.86-1.51c-.53-.44-1.05-.88-1.55-1.35a26.22,26.22,0,0,1-2.78-3.09l-9.58,3.36,5.1,8.39a35.58,35.58,0,0,0,3,2.41,12.67,12.67,0,0,1,3.92-8.2Z" style="fill:#aa1916"/><path d="M339.62,83.73V94.15h15.84v15.74a20.74,20.74,0,0,1-6.76,2.44,42.3,42.3,0,0,1-8,.77c-.59,0-1.18,0-1.76,0a12.5,12.5,0,0,1,.65,4,12.63,12.63,0,0,1-1.82,6.69c.89,0,1.79.07,2.71.07a41.93,41.93,0,0,0,7.21-.66,62.17,62.17,0,0,0,7.36-1.78,51.43,51.43,0,0,0,6.6-2.49,19.77,19.77,0,0,0,4.65-2.83V83.73Z" style="fill:#aa1916"/><path d="M327.52,116.07a1.36,1.36,0,0,0-.6-.15,2.06,2.06,0,0,0-.86.19h0l0,0h0a1.83,1.83,0,0,0-.5,1,1.45,1.45,0,0,0,.27.77,2.26,2.26,0,0,0,1.12.27,1.74,1.74,0,0,0,.85-.23h0v0l0,0h0a1.54,1.54,0,0,0,.26-.79A1.84,1.84,0,0,0,327.52,116.07Z" style="fill:#aa1916"/><path d="M322.87,112.88l3.15,3.25,0,0Z" style="fill:#aa1916"/><path d="M46.65,48.38a6.06,6.06,0,0,0-3.5.89,5.13,5.13,0,0,0-1.77,3.38,39.83,39.83,0,0,0-.5,7.26V73a24.48,24.48,0,0,1-1.22,8.48,15.61,15.61,0,0,1-2.88,5.1,16.52,16.52,0,0,1-3.21,2.82,19.17,19.17,0,0,1,3.1,2.83A17.09,17.09,0,0,1,39.61,97a19.36,19.36,0,0,1,1.27,7.54v14.52a39.78,39.78,0,0,0,.5,7.25,5.13,5.13,0,0,0,1.77,3.38,6,6,0,0,0,3.5.89h5v9.09H44.54c-1.85,0-3.64-.06-5.38-.17a10.62,10.62,0,0,1-4.65-1.33,8,8,0,0,1-3.27-4.26A25.74,25.74,0,0,1,30,125V107.45a22.7,22.7,0,0,0-.89-6.26,12.73,12.73,0,0,0-2.82-5.27,6.67,6.67,0,0,0-5.15-2.1V84.73a7,7,0,0,0,5.15-2.22,12.68,12.68,0,0,0,2.82-5.21A22.48,22.48,0,0,0,30,71V52.59a19.59,19.59,0,0,1,1.28-8,8.08,8.08,0,0,1,3.27-3.83,11.34,11.34,0,0,1,4.59-1.33c1.74-.14,3.53-.22,5.38-.22h7.09v9.2Z" style="fill:#fff"/><path d="M127,117a46.81,46.81,0,0,1-5.43,3,40,40,0,0,1-8,2.77,44.74,44.74,0,0,1-26.82-2.21A37.69,37.69,0,0,1,65.93,99a42.91,42.91,0,0,1-2.77-15.46A46.37,46.37,0,0,1,66,66.94,38.55,38.55,0,0,1,74.3,53.75a38,38,0,0,1,12.63-8.7,40.19,40.19,0,0,1,15.9-3.1,41.64,41.64,0,0,1,13.08,1.94A49.22,49.22,0,0,1,126,48.38l-4.33,10.2a42.46,42.46,0,0,0-8.09-4.33,27.87,27.87,0,0,0-21.5.34,28.79,28.79,0,0,0-9.2,6.53A31.25,31.25,0,0,0,74.35,83,34.6,34.6,0,0,0,76.4,95a29,29,0,0,0,5.88,9.75,26.59,26.59,0,0,0,9.25,6.49,30.67,30.67,0,0,0,12.19,2.32,29.3,29.3,0,0,0,10.86-1.88,33.68,33.68,0,0,0,7.87-4.21Z" style="fill:#fff"/><path d="M138.41,99.58a23.94,23.94,0,0,1,3.27-12.41,23.47,23.47,0,0,1,9.08-8.76A27,27,0,0,1,164,75.2a26,26,0,0,1,13.07,3.21,23.12,23.12,0,0,1,8.82,8.76,26,26,0,0,1,0,24.82,23.46,23.46,0,0,1-8.82,8.81,25.83,25.83,0,0,1-13.18,3.27,27.52,27.52,0,0,1-13.14-3,23.18,23.18,0,0,1-9-8.54A24.49,24.49,0,0,1,138.41,99.58Zm10.41.11a16.31,16.31,0,0,0,2,8,15.45,15.45,0,0,0,5.32,5.7,13.74,13.74,0,0,0,7.53,2.11,13.91,13.91,0,0,0,7.65-2.11,15.08,15.08,0,0,0,5.27-5.7,17.61,17.61,0,0,0,0-16.07,15.59,15.59,0,0,0-5.27-5.77,13.7,13.7,0,0,0-7.65-2.16A13.55,13.55,0,0,0,156.08,86a15.93,15.93,0,0,0-5.32,5.82A16.46,16.46,0,0,0,148.82,99.69Z" style="fill:#fff"/><path d="M221.53,124.07A22,22,0,0,1,210,121a22.31,22.31,0,0,1-8.15-8.65,26.57,26.57,0,0,1-3-12.91A25.26,25.26,0,0,1,202,86.39a21.7,21.7,0,0,1,8.64-8.31,25.64,25.64,0,0,1,12.2-2.88,23.9,23.9,0,0,1,10.36,2.33,18.72,18.72,0,0,1,7.7,6.42l-.55,3.66V37.19h10.3V123h-10.3V111.55l1.22,2.88a26.24,26.24,0,0,1-8.48,6.93A24.48,24.48,0,0,1,221.53,124.07Zm3.21-8.75a16.35,16.35,0,0,0,7.26-1.55,16,16,0,0,0,5.32-4.16,15.47,15.47,0,0,0,3.05-6.15V94.7a14.4,14.4,0,0,0-3.16-5.87,15.59,15.59,0,0,0-5.43-3.93,17.28,17.28,0,0,0-7-1.39,15.38,15.38,0,0,0-7.65,2,15,15,0,0,0-5.65,5.54,16.87,16.87,0,0,0,0,16.34,16.19,16.19,0,0,0,5.65,5.77A14.47,14.47,0,0,0,224.74,115.32Z" style="fill:#fff"/><path d="M289.9,124.07a27.27,27.27,0,0,1-13.52-3.16,22.37,22.37,0,0,1-8.75-8.64,25.1,25.1,0,0,1-3.11-12.58,22.6,22.6,0,0,1,3.5-12.3,26.3,26.3,0,0,1,9.25-8.87,25.33,25.33,0,0,1,12.86-3.32q9.08,0,15.07,5.32t8.2,14.63l-37.9,13.3-2.44-6.1L304,90.94l-2.11,1.55a14.86,14.86,0,0,0-4.43-6.32,12,12,0,0,0-8.09-2.66A14,14,0,0,0,276.71,91a17,17,0,0,0-1.88,8.15,17.51,17.51,0,0,0,1.94,8.31,14.16,14.16,0,0,0,5.43,5.71,15.43,15.43,0,0,0,7.93,2,15.74,15.74,0,0,0,5.81-1.11,26.08,26.08,0,0,0,5.38-2.88l4.65,7.64a31.52,31.52,0,0,1-7.7,3.77A26,26,0,0,1,289.9,124.07Z" style="fill:#fff"/><path d="M322.87,112.88a5.71,5.71,0,0,1,4.05-1.77,5.48,5.48,0,0,1,3.82,1.77,5.67,5.67,0,0,1,1.83,4.21,5.41,5.41,0,0,1-1.83,4.27,5.73,5.73,0,0,1-3.82,1.6,6,6,0,0,1-4.05-1.6,5.41,5.41,0,0,1-1.83-4.27A5.67,5.67,0,0,1,322.87,112.88Z" style="fill:#fff"/></svg>